<mxfile host="app.diagrams.net" modified="2021-08-30T15:48:36.174Z" agent="5.0 (Windows NT 10.0; Win64; x64) AppleWebKit/537.36 (KHTML, like Gecko) Chrome/92.0.4515.131 Safari/537.36 OPR/78.0.4093.186" etag="85HYrgEAZtE306jXSqcW" version="15.0.3" type="github">
  <diagram id="9jdYxln3JL_MGua-3G26" name="Page-1">
    <mxGraphModel dx="1888" dy="548" grid="1" gridSize="10" guides="1" tooltips="1" connect="1" arrows="1" fold="1" page="1" pageScale="1" pageWidth="850" pageHeight="1100" math="0" shadow="0">
      <root>
        <mxCell id="0" />
        <mxCell id="1" parent="0" />
        <mxCell id="CmCaqMO0mWyX__hIUsSE-1" style="edgeStyle=orthogonalEdgeStyle;rounded=0;orthogonalLoop=1;jettySize=auto;html=1;endArrow=none;endFill=0;dashed=1;" edge="1" parent="1" source="CmCaqMO0mWyX__hIUsSE-12">
          <mxGeometry relative="1" as="geometry">
            <mxPoint x="-755" y="420" as="targetPoint" />
            <mxPoint x="-755.5" y="-80.5" as="sourcePoint" />
            <Array as="points" />
          </mxGeometry>
        </mxCell>
        <mxCell id="CmCaqMO0mWyX__hIUsSE-2" value="" style="shape=umlActor;verticalLabelPosition=bottom;verticalAlign=top;html=1;outlineConnect=0;" vertex="1" parent="1">
          <mxGeometry x="-765" y="110" width="20" height="40" as="geometry" />
        </mxCell>
        <mxCell id="CmCaqMO0mWyX__hIUsSE-3" style="edgeStyle=orthogonalEdgeStyle;rounded=0;orthogonalLoop=1;jettySize=auto;html=1;endArrow=none;endFill=0;dashed=1;startArrow=none;" edge="1" parent="1" source="CmCaqMO0mWyX__hIUsSE-20">
          <mxGeometry relative="1" as="geometry">
            <mxPoint x="-605" y="420" as="targetPoint" />
            <Array as="points">
              <mxPoint x="-605" y="370" />
              <mxPoint x="-605" y="370" />
            </Array>
          </mxGeometry>
        </mxCell>
        <mxCell id="CmCaqMO0mWyX__hIUsSE-4" value=":Home Page" style="rounded=0;whiteSpace=wrap;html=1;" vertex="1" parent="1">
          <mxGeometry x="-655" y="110" width="100" height="40" as="geometry" />
        </mxCell>
        <mxCell id="CmCaqMO0mWyX__hIUsSE-5" style="edgeStyle=orthogonalEdgeStyle;rounded=0;orthogonalLoop=1;jettySize=auto;html=1;endArrow=none;endFill=0;dashed=1;" edge="1" parent="1" source="CmCaqMO0mWyX__hIUsSE-6">
          <mxGeometry relative="1" as="geometry">
            <mxPoint x="-455" y="420" as="targetPoint" />
          </mxGeometry>
        </mxCell>
        <mxCell id="CmCaqMO0mWyX__hIUsSE-6" value=": Tracker" style="rounded=0;whiteSpace=wrap;html=1;" vertex="1" parent="1">
          <mxGeometry x="-505" y="110" width="100" height="40" as="geometry" />
        </mxCell>
        <mxCell id="CmCaqMO0mWyX__hIUsSE-7" value="" style="endArrow=classic;html=1;" edge="1" parent="1">
          <mxGeometry width="50" height="50" relative="1" as="geometry">
            <mxPoint x="-755" y="200" as="sourcePoint" />
            <mxPoint x="-612" y="200" as="targetPoint" />
          </mxGeometry>
        </mxCell>
        <mxCell id="CmCaqMO0mWyX__hIUsSE-8" value="clicks Walking button" style="text;html=1;align=center;verticalAlign=middle;resizable=0;points=[];autosize=1;strokeColor=none;" vertex="1" parent="1">
          <mxGeometry x="-745" y="180" width="130" height="20" as="geometry" />
        </mxCell>
        <mxCell id="CmCaqMO0mWyX__hIUsSE-9" value="" style="html=1;points=[];perimeter=orthogonalPerimeter;fillColor=#ffffff;" vertex="1" parent="1">
          <mxGeometry x="-760" y="180" width="10" height="160" as="geometry" />
        </mxCell>
        <mxCell id="CmCaqMO0mWyX__hIUsSE-10" value="" style="html=1;points=[];perimeter=orthogonalPerimeter;fillColor=#ffffff;" vertex="1" parent="1">
          <mxGeometry x="-610" y="190" width="10" height="70" as="geometry" />
        </mxCell>
        <mxCell id="CmCaqMO0mWyX__hIUsSE-11" value="" style="html=1;points=[];perimeter=orthogonalPerimeter;fillColor=#ffffff;" vertex="1" parent="1">
          <mxGeometry x="-460" y="200" width="10" height="120" as="geometry" />
        </mxCell>
        <mxCell id="CmCaqMO0mWyX__hIUsSE-12" value="User" style="text;html=1;align=center;verticalAlign=middle;resizable=0;points=[];autosize=1;strokeColor=none;" vertex="1" parent="1">
          <mxGeometry x="-775" y="150" width="40" height="20" as="geometry" />
        </mxCell>
        <mxCell id="CmCaqMO0mWyX__hIUsSE-13" style="edgeStyle=orthogonalEdgeStyle;rounded=0;orthogonalLoop=1;jettySize=auto;html=1;endArrow=none;endFill=0;dashed=1;" edge="1" parent="1" source="CmCaqMO0mWyX__hIUsSE-14">
          <mxGeometry relative="1" as="geometry">
            <mxPoint x="-305" y="420" as="targetPoint" />
            <Array as="points">
              <mxPoint x="-305" y="420" />
              <mxPoint x="-305" y="420" />
            </Array>
          </mxGeometry>
        </mxCell>
        <mxCell id="CmCaqMO0mWyX__hIUsSE-14" value=": Database" style="rounded=0;whiteSpace=wrap;html=1;" vertex="1" parent="1">
          <mxGeometry x="-355" y="110" width="100" height="40" as="geometry" />
        </mxCell>
        <mxCell id="CmCaqMO0mWyX__hIUsSE-15" value="" style="endArrow=classic;html=1;" edge="1" parent="1">
          <mxGeometry width="50" height="50" relative="1" as="geometry">
            <mxPoint x="-600" y="220" as="sourcePoint" />
            <mxPoint x="-459" y="220" as="targetPoint" />
          </mxGeometry>
        </mxCell>
        <mxCell id="CmCaqMO0mWyX__hIUsSE-16" value="" style="endArrow=none;html=1;entryX=-0.02;entryY=0.222;entryDx=0;entryDy=0;entryPerimeter=0;endFill=0;startArrow=classic;startFill=1;dashed=1;exitX=1.02;exitY=0.75;exitDx=0;exitDy=0;exitPerimeter=0;" edge="1" parent="1" source="CmCaqMO0mWyX__hIUsSE-9">
          <mxGeometry width="50" height="50" relative="1" as="geometry">
            <mxPoint x="-599.8" y="300.02" as="sourcePoint" />
            <mxPoint x="-460" y="300" as="targetPoint" />
          </mxGeometry>
        </mxCell>
        <mxCell id="CmCaqMO0mWyX__hIUsSE-17" value="" style="html=1;points=[];perimeter=orthogonalPerimeter;fillColor=#ffffff;" vertex="1" parent="1">
          <mxGeometry x="-310" y="210" width="10" height="70" as="geometry" />
        </mxCell>
        <mxCell id="CmCaqMO0mWyX__hIUsSE-18" value="" style="endArrow=classic;html=1;entryX=-0.02;entryY=0.222;entryDx=0;entryDy=0;entryPerimeter=0;" edge="1" parent="1">
          <mxGeometry width="50" height="50" relative="1" as="geometry">
            <mxPoint x="-450" y="230" as="sourcePoint" />
            <mxPoint x="-310.20000000000005" y="229.98000000000002" as="targetPoint" />
          </mxGeometry>
        </mxCell>
        <mxCell id="CmCaqMO0mWyX__hIUsSE-19" value="" style="endArrow=none;html=1;entryX=-0.02;entryY=0.222;entryDx=0;entryDy=0;entryPerimeter=0;startArrow=classic;startFill=1;endFill=0;dashed=1;" edge="1" parent="1">
          <mxGeometry width="50" height="50" relative="1" as="geometry">
            <mxPoint x="-450" y="270.02" as="sourcePoint" />
            <mxPoint x="-310.20000000000005" y="270" as="targetPoint" />
          </mxGeometry>
        </mxCell>
        <mxCell id="CmCaqMO0mWyX__hIUsSE-20" value="display calories, steps" style="text;html=1;align=center;verticalAlign=middle;resizable=0;points=[];autosize=1;" vertex="1" parent="1">
          <mxGeometry x="-665" y="280" width="130" height="20" as="geometry" />
        </mxCell>
        <mxCell id="CmCaqMO0mWyX__hIUsSE-21" value="" style="edgeStyle=orthogonalEdgeStyle;rounded=0;orthogonalLoop=1;jettySize=auto;html=1;endArrow=none;endFill=0;dashed=1;" edge="1" parent="1" source="CmCaqMO0mWyX__hIUsSE-4" target="CmCaqMO0mWyX__hIUsSE-20">
          <mxGeometry relative="1" as="geometry">
            <mxPoint x="-605" y="580" as="targetPoint" />
            <mxPoint x="-605" y="150" as="sourcePoint" />
            <Array as="points">
              <mxPoint x="-605" y="270" />
              <mxPoint x="-605" y="270" />
            </Array>
          </mxGeometry>
        </mxCell>
        <mxCell id="CmCaqMO0mWyX__hIUsSE-22" value="send request" style="text;html=1;align=center;verticalAlign=middle;resizable=0;points=[];autosize=1;strokeColor=none;" vertex="1" parent="1">
          <mxGeometry x="-580" y="200" width="90" height="20" as="geometry" />
        </mxCell>
        <mxCell id="CmCaqMO0mWyX__hIUsSE-23" value="search data" style="text;html=1;align=center;verticalAlign=middle;resizable=0;points=[];autosize=1;strokeColor=none;" vertex="1" parent="1">
          <mxGeometry x="-415" y="210" width="80" height="20" as="geometry" />
        </mxCell>
        <mxCell id="CmCaqMO0mWyX__hIUsSE-24" value="get data" style="text;html=1;align=center;verticalAlign=middle;resizable=0;points=[];autosize=1;strokeColor=none;" vertex="1" parent="1">
          <mxGeometry x="-405" y="250" width="60" height="20" as="geometry" />
        </mxCell>
        <mxCell id="CmCaqMO0mWyX__hIUsSE-25" value="ViewNotes" style="text;html=1;align=center;verticalAlign=middle;resizable=0;points=[];autosize=1;strokeColor=none;" vertex="1" parent="1">
          <mxGeometry x="-775" y="60" width="70" height="20" as="geometry" />
        </mxCell>
      </root>
    </mxGraphModel>
  </diagram>
</mxfile>
